<svg width="14" height="14" viewBox="0 0 14 14" fill="none" xmlns="http://www.w3.org/2000/svg">
<path d="M9.47457 4.52453C9.56837 4.61831 9.62107 4.74549 9.62107 4.8781C9.62107 5.0107 9.56837 5.13788 9.47457 5.23166L5.23197 9.47424C5.18554 9.52074 5.13041 9.55754 5.06974 9.58264C5.00908 9.60784 4.94405 9.62074 4.87839 9.62074C4.81272 9.62074 4.7477 9.60774 4.68703 9.58264C4.62637 9.55754 4.57125 9.52064 4.52482 9.47424C4.47839 9.42784 4.44156 9.37274 4.41643 9.31204C4.3913 9.25134 4.37837 9.18634 4.37837 9.12064C4.37838 9.05504 4.39131 8.98998 4.41645 8.92931C4.44158 8.86865 4.47841 8.81353 4.52485 8.7671L8.76747 4.52453C8.86127 4.4308 8.98844 4.37815 9.12107 4.37815C9.25367 4.37815 9.38077 4.4308 9.47457 4.52453ZM7.70666 9.82824L5.93891 11.596C5.4689 12.0591 4.83485 12.3176 4.17501 12.3152C3.51518 12.3128 2.88306 12.0496 2.41648 11.583C1.9499 11.1164 1.6867 10.4843 1.68426 9.82454C1.68183 9.16464 1.94035 8.53061 2.40347 8.0606L4.17122 6.29284C4.265 6.19907 4.31769 6.07188 4.31769 5.93925C4.31769 5.80663 4.265 5.67944 4.17122 5.58566C4.07744 5.49188 3.95025 5.43919 3.81763 5.43919C3.685 5.43919 3.55781 5.49188 3.46403 5.58566L1.69628 7.35341C1.0399 8.00979 0.671143 8.90003 0.671143 9.82834C0.671133 10.7565 1.03988 11.6468 1.69625 12.3031C2.35263 12.9595 3.24287 13.3283 4.17114 13.3283C5.0994 13.3283 5.98965 12.9596 6.64603 12.3032L8.41385 10.5354C8.46028 10.4889 8.49711 10.4338 8.52223 10.3731C8.54736 10.3125 8.56029 10.2474 8.56029 10.1818C8.56029 10.1161 8.54735 10.0511 8.52222 9.99044C8.49708 9.92984 8.46025 9.87464 8.41382 9.82824C8.36738 9.78184 8.31226 9.74504 8.25159 9.71984C8.19092 9.69474 8.1259 9.68184 8.06023 9.68184C7.99457 9.68184 7.92954 9.69474 7.86888 9.71984C7.80821 9.74504 7.75309 9.78184 7.70666 9.82824ZM12.3033 1.69622C11.6469 1.03987 10.7566 0.671143 9.82837 0.671143C8.9001 0.671143 8.00987 1.03987 7.35347 1.69622L5.58572 3.46397C5.53929 3.5104 5.50246 3.56552 5.47733 3.62619C5.4522 3.68685 5.43927 3.75187 5.43927 3.81753C5.43927 3.88319 5.4522 3.94821 5.47733 4.00888C5.50246 4.06954 5.53929 4.12466 5.58572 4.17109C5.63215 4.21753 5.68727 4.25436 5.74794 4.27948C5.8086 4.30461 5.87362 4.31755 5.93928 4.31755C6.00495 4.31755 6.06997 4.30461 6.13063 4.27948C6.1913 4.25436 6.24642 4.21753 6.29285 4.17109L8.0606 2.40334C8.5304 1.9392 9.16477 1.67981 9.82517 1.68181C10.4856 1.68381 11.1184 1.94704 11.5854 2.41401C12.0524 2.88099 12.3156 3.51378 12.3176 4.17419C12.3196 4.83459 12.0603 5.46897 11.5961 5.93878L9.82827 7.7066C9.73447 7.80037 9.68187 7.92756 9.68187 8.06018C9.68187 8.1928 9.73457 8.31998 9.82827 8.41375C9.92207 8.50752 10.0493 8.5602 10.1819 8.56019C10.3145 8.56019 10.4417 8.5075 10.5355 8.41372L12.3033 6.64597C12.9586 5.98907 13.3267 5.09902 13.3267 4.17109C13.3267 3.24317 12.9586 2.35312 12.3033 1.69622Z" fill="#E8F4FF"/>
</svg>
